<svg width="24" height="24" viewBox="0 0 24 24" fill="none" xmlns="http://www.w3.org/2000/svg">
<path d="M8.70711 11.2929C8.31658 10.9024 7.68342 10.9024 7.29289 11.2929C6.90237 11.6834 6.90237 12.3166 7.29289 12.7071L11.2929 16.7071C11.6834 17.0976 12.3166 17.0976 12.7071 16.7071L16.7071 12.7071C17.0976 12.3166 17.0976 11.6834 16.7071 11.2929C16.3166 10.9024 15.6834 10.9024 15.2929 11.2929L13 13.5858V3C13 2.44771 12.5523 2 12 2C11.4477 2 11 2.44771 11 3V13.5858L8.70711 11.2929Z" fill="#464646"/>
<path d="M4 17C4 16.4477 3.55228 16 3 16C2.44772 16 2 16.4477 2 17V19.1C2 20.6961 3.28788 22 4.88889 22H19.1111C20.7121 22 22 20.6961 22 19.1V17C22 16.4477 21.5523 16 21 16C20.4477 16 20 16.4477 20 17V19.1C20 19.6026 19.5965 20 19.1111 20H4.88889C4.40349 20 4 19.6026 4 19.1V17Z" fill="#464646"/>
</svg>
