<svg width="24" height="24" viewBox="0 0 24 24" fill="none" xmlns="http://www.w3.org/2000/svg">
<path d="M16 4L18.5739 4L11.2923 11.2935C10.9021 11.6843 10.9026 12.3175 11.2935 12.7077C11.6843 13.0979 12.3175 13.0974 12.7077 12.7065L19.9853 5.41701V8C19.9853 8.55228 20.433 9 20.9853 9C21.5376 9 21.9853 8.55228 21.9853 8V3C21.9853 2.73478 21.8799 2.48043 21.6924 2.29289C21.5048 2.10536 21.2505 2 20.9853 2H16C15.4477 2 15 2.44772 15 3C15 3.55229 15.4477 4 16 4Z" fill="#464646"/>
<path d="M6 3C4.34315 3 3 4.34315 3 6V18C3 19.6569 4.34315 21 6 21H18C19.6569 21 21 19.6569 21 18V15C21 14.4477 20.5523 14 20 14C19.4477 14 19 14.4477 19 15V18C19 18.5523 18.5523 19 18 19H6C5.44772 19 5 18.5523 5 18V6C5 5.44772 5.44772 5 6 5H7.5H9C9.55228 5 10 4.55228 10 4C10 3.44772 9.55228 3 9 3H6Z" fill="#464646"/>
</svg>
