<svg width="24" height="24" viewBox="0 0 24 24" fill="none" xmlns="http://www.w3.org/2000/svg">
<path fill-rule="evenodd" clip-rule="evenodd" d="M2 6C2 4.34315 3.34315 3 5 3H9.58579C10.1162 3 10.6249 3.21071 11 3.58579L12.4142 5L18 5C19.6569 5 21 6.34315 21 8V9H23C23.3161 9 23.6136 9.14946 23.8023 9.40307C23.991 9.65668 24.0487 9.98457 23.9578 10.2873L21.1716 19.5747C20.9178 20.4207 20.1392 21 19.256 21H4C2.89543 21 2 20.1046 2 19V6ZM19 9V8C19 7.44772 18.5523 7 18 7H12.4142C11.8838 7 11.3751 6.78929 11 6.41421L9.58579 5H5C4.44772 5 4 5.44772 4 6V13.2437L5.0409 9.71693C5.16637 9.2918 5.55674 9 6 9H19ZM4.38639 19H19.256L21.656 11H6.74751L4.38639 19Z" fill="#464646"/>
</svg>
