<svg width="24" height="24" viewBox="0 0 24 24" fill="none" xmlns="http://www.w3.org/2000/svg">
<path fill-rule="evenodd" clip-rule="evenodd" d="M5 5C4.44772 5 4 5.44772 4 6V9H20V8C20 7.44772 19.5523 7 19 7H12.4142C11.8838 7 11.3751 6.78929 11 6.41421L9.58579 5H5ZM20 11H4V18C4 18.5523 4.44772 19 5 19H19C19.5523 19 20 18.5523 20 18V11ZM2 18C2 19.6569 3.34315 21 5 21H19C20.6569 21 22 19.6569 22 18V8C22 6.34315 20.6569 5 19 5L12.4142 5L11 3.58579C10.6249 3.21071 10.1162 3 9.58579 3H5C3.34315 3 2 4.34315 2 6V18Z" fill="#464646"/>
</svg>
