<svg width="24" height="24" viewBox="0 0 24 24" fill="none" xmlns="http://www.w3.org/2000/svg">
<path fill-rule="evenodd" clip-rule="evenodd" d="M18 9V7C18 3.68629 15.3137 1 12 1C8.68629 1 6 3.68629 6 7V9H5C4.44772 9 4 9.44771 4 10V20C4 21.6569 5.34315 23 7 23H17C18.6569 23 20 21.6569 20 20V10C20 9.44771 19.5523 9 19 9H18ZM8 9H16V7C16 4.79086 14.2091 3 12 3C9.79086 3 8 4.79086 8 7V9ZM11 17C11 16.4477 11.4477 16 12 16C12.5523 16 13 16.4477 13 17V18C13 18.5523 12.5523 19 12 19C11.4477 19 11 18.5523 11 18V17Z" fill="#464646"/>
</svg>
