<svg width="24" height="24" viewBox="0 0 24 24" fill="none" xmlns="http://www.w3.org/2000/svg">
<path fill-rule="evenodd" clip-rule="evenodd" d="M12 3C7.02944 3 3 7.02944 3 12C3 16.9706 7.02944 21 12 21C15.5609 21 18.6407 18.9321 20.1005 15.9272C20.3419 15.4304 20.9402 15.2233 21.437 15.4646C21.9337 15.706 22.1408 16.3043 21.8995 16.8011C20.1178 20.4685 16.3555 23 12 23C5.92487 23 1 18.0751 1 12C1 5.92487 5.92487 1 12 1C15.7216 1 19.0101 2.84816 21 5.67416V3C21 2.44772 21.4477 2 22 2C22.5523 2 23 2.44772 23 3V8C23 8.55228 22.5523 9 22 9H17C16.4477 9 16 8.55228 16 8C16 7.44772 16.4477 7 17 7H19.4847C17.8693 4.58681 15.1192 3 12 3Z" fill="#464646"/>
</svg>
