<svg width="24" height="24" viewBox="0 0 24 24" fill="none" xmlns="http://www.w3.org/2000/svg">
<path fill-rule="evenodd" clip-rule="evenodd" d="M17.609 3.39612C16.2903 4.51361 14.26 3.67267 14.1177 1.94995C14.0934 1.6554 14.0229 1.39423 13.9169 1.16644C13.2944 1.05707 12.6538 1 12 1C11.3462 1 10.7056 1.05707 10.0831 1.16644C9.97705 1.39423 9.90662 1.6554 9.88232 1.94995C9.73999 3.67267 7.70972 4.51361 6.39099 3.39612C6.16589 3.20532 5.93164 3.07062 5.69592 2.9845C4.64172 3.72302 3.72302 4.64178 2.9845 5.69598C3.07056 5.9317 3.20532 6.16577 3.39612 6.39093C4.51355 7.70978 3.67261 9.73999 1.94995 9.88232C1.6554 9.90668 1.39417 9.97705 1.16638 10.0831C1.05701 10.7056 1 11.3461 1 12C1 12.6539 1.05701 13.2944 1.16638 13.9169C1.39417 14.0229 1.6554 14.0933 1.94995 14.1177C3.67261 14.26 4.51355 16.2903 3.39612 17.6091C3.20532 17.8342 3.07056 18.0683 2.9845 18.304C3.72302 19.3582 4.64172 20.277 5.69592 21.0155C5.93164 20.9294 6.16589 20.7947 6.39099 20.6039C7.70972 19.4864 9.73999 20.3273 9.88232 22.05C9.90662 22.3446 9.97705 22.6058 10.0831 22.8336C10.7056 22.9429 11.3462 23 12 23C12.6538 23 13.2944 22.9429 13.9169 22.8336C14.0229 22.6058 14.0934 22.3446 14.1177 22.05C14.26 20.3273 16.2903 19.4864 17.609 20.6039C17.8341 20.7947 18.0684 20.9294 18.3041 21.0155C19.3583 20.277 20.277 19.3582 21.0155 18.304C20.9294 18.0683 20.7947 17.8342 20.6039 17.6091C19.4865 16.2903 20.3274 14.26 22.05 14.1177C22.3446 14.0933 22.6058 14.0229 22.8336 13.9169C22.943 13.2944 23 12.6539 23 12C23 11.3461 22.943 10.7056 22.8336 10.0831C22.6058 9.97705 22.3446 9.90668 22.05 9.88232C20.3274 9.73999 19.4865 7.70972 20.6039 6.39093C20.7947 6.16577 20.9294 5.9317 21.0155 5.69598C20.277 4.64178 19.3583 3.72302 18.3041 2.9845C18.0684 3.07062 17.8341 3.20532 17.609 3.39612ZM18.153 5.43183C15.897 6.63366 13.039 5.44978 12.2935 3.00468C12.1961 3.00157 12.0983 3 12 3C11.9017 3 11.8039 3.00157 11.7065 3.00468C10.961 5.44978 8.10305 6.63366 5.84701 5.43183C5.70417 5.5657 5.5657 5.70418 5.43183 5.84702C6.63352 8.10306 5.44981 10.9611 3.00467 11.7065C3.00157 11.8039 3 11.9017 3 12C3 12.0983 3.00157 12.1961 3.00467 12.2935C5.44978 13.039 6.63353 15.897 5.43184 18.153C5.56571 18.2958 5.70418 18.4343 5.84701 18.5682C8.10305 17.3663 10.961 18.5502 11.7065 20.9953C11.8039 20.9984 11.9017 21 12 21C12.0983 21 12.1961 20.9984 12.2935 20.9953C13.039 18.5502 15.897 17.3663 18.153 18.5682C18.2958 18.4343 18.4343 18.2958 18.5682 18.153C17.3665 15.897 18.5502 13.039 20.9953 12.2935C20.9984 12.1961 21 12.0983 21 12C21 11.9017 20.9984 11.8039 20.9953 11.7065C18.5502 10.961 17.3665 8.10303 18.5682 5.84702C18.4343 5.70418 18.2958 5.5657 18.153 5.43183ZM16 12C16 14.2091 14.2091 16 12 16C9.79086 16 8 14.2091 8 12C8 9.79086 9.79086 8 12 8C14.2091 8 16 9.79086 16 12ZM12 14C13.1046 14 14 13.1046 14 12C14 10.8954 13.1046 10 12 10C10.8954 10 10 10.8954 10 12C10 13.1046 10.8954 14 12 14Z" fill="#464646"/>
</svg>
