<svg width="24" height="24" viewBox="0 0 24 24" fill="none" xmlns="http://www.w3.org/2000/svg">
<path fill-rule="evenodd" clip-rule="evenodd" d="M9.88232 1.94995C9.90662 1.6554 9.97705 1.39423 10.0831 1.16644C10.7056 1.05707 11.3462 1 12 1C12.6538 1 13.2944 1.05707 13.9169 1.16644C14.0229 1.39423 14.0934 1.6554 14.1177 1.94995C14.26 3.67267 16.2903 4.51361 17.609 3.39612C17.8341 3.20532 18.0684 3.07062 18.3041 2.9845C19.3583 3.72302 20.277 4.64178 21.0155 5.69598C20.9294 5.9317 20.7947 6.16577 20.6039 6.39093C19.4865 7.70972 20.3274 9.73999 22.05 9.88232C22.3446 9.90668 22.6058 9.97705 22.8336 10.0831C22.943 10.7056 23 11.3461 23 12C23 12.6539 22.943 13.2944 22.8336 13.9169C22.6058 14.0229 22.3446 14.0933 22.05 14.1177C20.3274 14.26 19.4865 16.2903 20.6039 17.6091C20.7947 17.8342 20.9294 18.0683 21.0155 18.304C20.277 19.3582 19.3583 20.277 18.3041 21.0155C18.0684 20.9294 17.8341 20.7947 17.609 20.6039C16.2903 19.4864 14.26 20.3273 14.1177 22.05C14.0934 22.3446 14.0229 22.6058 13.9169 22.8336C13.2944 22.9429 12.6538 23 12 23C11.3462 23 10.7056 22.9429 10.0831 22.8336C9.97705 22.6058 9.90662 22.3446 9.88232 22.05C9.73999 20.3273 7.70972 19.4864 6.39099 20.6039C6.16589 20.7947 5.93164 20.9294 5.69592 21.0155C4.64172 20.277 3.72302 19.3582 2.9845 18.304C3.07056 18.0683 3.20532 17.8342 3.39612 17.6091C4.51355 16.2903 3.67261 14.26 1.94995 14.1177C1.6554 14.0933 1.39417 14.0229 1.16638 13.9169C1.05701 13.2944 1 12.6539 1 12C1 11.3461 1.05701 10.7056 1.16638 10.0831C1.39417 9.97705 1.6554 9.90668 1.94995 9.88232C3.67261 9.73999 4.51355 7.70978 3.39612 6.39093C3.20532 6.16577 3.07056 5.9317 2.9845 5.69598C3.72302 4.64178 4.64172 3.72302 5.69592 2.9845C5.93164 3.07062 6.16589 3.20532 6.39099 3.39612C7.70972 4.51361 9.73999 3.67267 9.88232 1.94995ZM16.0024 12.0027C16.0024 14.2118 14.2116 16.0027 12.0024 16.0027C9.7933 16.0027 8.00244 14.2118 8.00244 12.0027C8.00244 9.79355 9.7933 8.00269 12.0024 8.00269C14.2116 8.00269 16.0024 9.79355 16.0024 12.0027Z" fill="#464646"/>
</svg>
