<svg width="24" height="24" viewBox="0 0 24 24" fill="none" xmlns="http://www.w3.org/2000/svg">
<path fill-rule="evenodd" clip-rule="evenodd" d="M6.43836 20.9993C6.23036 20.9993 6.02336 20.9352 5.84936 20.8069C5.54236 20.5824 5.38836 20.2025 5.45336 19.8266L6.42536 14.1834L2.30536 10.1871C2.03036 9.92049 1.93136 9.52156 2.04836 9.15771C2.16636 8.79386 2.47936 8.52924 2.85736 8.47411L8.55736 7.64919L11.1044 2.51119C11.4424 1.8296 12.5584 1.8296 12.8964 2.51119L15.4434 7.64919L21.1434 8.47411C21.5214 8.52924 21.8344 8.79386 21.9514 9.15771C22.0694 9.52156 21.9704 9.92049 21.6954 10.1871L17.5754 14.1834L18.5484 19.8266C18.6124 20.2015 18.4594 20.5824 18.1524 20.8069C17.8444 21.0324 17.4364 21.0625 17.1004 20.8861L12.0004 18.2169L6.90136 20.8861C6.75536 20.9623 6.59636 20.9993 6.43836 20.9993Z" fill="#464646"/>
</svg>
