<svg width="24" height="24" viewBox="0 0 24 24" fill="none" xmlns="http://www.w3.org/2000/svg">
<path fill-rule="evenodd" clip-rule="evenodd" d="M12.0004 16.0839C12.1594 16.0839 12.3184 16.122 12.4634 16.1971L16.2324 18.1707L15.5154 14.003C15.4584 13.6773 15.5664 13.3435 15.8054 13.1119L18.8414 10.1671L14.6394 9.55864C14.3134 9.51153 14.0324 9.30806 13.8864 9.01237L12.0004 5.20949L10.1144 9.01237C9.96836 9.30806 9.68736 9.51153 9.36236 9.55864L5.16036 10.1671L8.19536 13.1119C8.43336 13.3435 8.54236 13.6763 8.48536 14.003L7.76836 18.1707L11.5374 16.1971C11.6824 16.122 11.8414 16.0839 12.0004 16.0839ZM6.43836 20.9993C6.23036 20.9993 6.02336 20.9352 5.84936 20.8069C5.54236 20.5824 5.38836 20.2025 5.45336 19.8266L6.42536 14.1834L2.30536 10.1871C2.03036 9.92049 1.93136 9.52156 2.04836 9.15771C2.16636 8.79386 2.47936 8.52924 2.85736 8.47411L8.55736 7.64919L11.1044 2.51119C11.4424 1.8296 12.5584 1.8296 12.8964 2.51119L15.4434 7.64919L21.1434 8.47411C21.5214 8.52924 21.8344 8.79386 21.9514 9.15771C22.0694 9.52156 21.9704 9.92049 21.6954 10.1871L17.5754 14.1834L18.5484 19.8266C18.6124 20.2015 18.4594 20.5824 18.1524 20.8069C17.8444 21.0324 17.4364 21.0625 17.1004 20.8861L12.0004 18.2169L6.90136 20.8861C6.75536 20.9623 6.59636 20.9993 6.43836 20.9993Z" fill="#464646"/>
</svg>
