<svg width="24" height="24" viewBox="0 0 24 24" fill="none" xmlns="http://www.w3.org/2000/svg">
<path d="M8.72361 1.55279C8.893 1.214 9.23926 1 9.61803 1H14.382C14.7607 1 15.107 1.214 15.2764 1.55279L16 3H21C21.5523 3 22 3.44772 22 4C22 4.55228 21.5523 5 21 5H3C2.44772 5 2 4.55228 2 4C2 3.44772 2.44772 3 3 3H8L8.72361 1.55279Z" fill="#464646"/>
<path d="M5 6C4.44772 6 4 6.44772 4 7V21C4 22.1046 4.89543 23 6 23H18C19.1046 23 20 22.1046 20 21V7C20 6.44772 19.5523 6 19 6H5Z" fill="#464646"/>
</svg>
