<svg width="24" height="24" viewBox="0 0 24 24" fill="none" xmlns="http://www.w3.org/2000/svg">
<path d="M9.61803 1C9.23926 1 8.893 1.214 8.72361 1.55279L8 3H3C2.44772 3 2 3.44772 2 4C2 4.55228 2.44772 5 3 5H21C21.5523 5 22 4.55228 22 4C22 3.44772 21.5523 3 21 3H16L15.2764 1.55279C15.107 1.214 14.7607 1 14.382 1H9.61803Z" fill="#464646"/>
<path d="M10 10C10.5523 10 11 10.4477 11 11V18C11 18.5523 10.5523 19 10 19C9.44772 19 9 18.5523 9 18V11C9 10.4477 9.44772 10 10 10Z" fill="#464646"/>
<path d="M15 11C15 10.4477 14.5523 10 14 10C13.4477 10 13 10.4477 13 11V18C13 18.5523 13.4477 19 14 19C14.5523 19 15 18.5523 15 18V11Z" fill="#464646"/>
<path fill-rule="evenodd" clip-rule="evenodd" d="M5 6C4.44772 6 4 6.44772 4 7V21C4 22.1046 4.89543 23 6 23H18C19.1046 23 20 22.1046 20 21V7C20 6.44772 19.5523 6 19 6H5ZM6 8V21H18V8H6Z" fill="#464646"/>
</svg>
