<svg width="24" height="24" viewBox="0 0 24 24" fill="none" xmlns="http://www.w3.org/2000/svg">
<path d="M11 17C11 16.4477 11.4477 16 12 16C12.5523 16 13 16.4477 13 17V18C13 18.5523 12.5523 19 12 19C11.4477 19 11 18.5523 11 18V17Z" fill="#464646"/>
<path fill-rule="evenodd" clip-rule="evenodd" d="M12 1C8.68629 1 6 3.68629 6 7V9H5C4.44772 9 4 9.44771 4 10V20C4 21.6569 5.34315 23 7 23H17C18.6569 23 20 21.6569 20 20V10C20 9.44771 19.5523 9 19 9H8V7C8 4.79086 9.79086 3 12 3C13.308 3 14.4693 3.62676 15.2008 4.60058C15.5325 5.04217 16.1594 5.13126 16.6009 4.79957C17.0425 4.46788 17.1316 3.84101 16.7999 3.39942C15.707 1.94434 13.9636 1 12 1ZM6 11V20C6 20.5523 6.44772 21 7 21H17C17.5523 21 18 20.5523 18 20V11H6Z" fill="#464646"/>
</svg>
